# xmcd CD database file
#
# Track frame offsets:
#	150
#	29442
#	82446
#	106769
#	127815
#	220135
#	244494
#	313816
#
# Disc length: 4866 seconds
#
# Revision: 0
# Processed by: cddbd v1.5.2PL0 Copyright (c) Steve Scherf et al.
# Submitted via: CDex 1.51
#
DISCID=70130008
DTITLE=Cello Concerto No.1 | Symphony No.5 - Lorin Maazel -  Shostakovich - Cello Concerto No.1 | Symphony No.5
DYEAR=2006
DGENRE=Clasica
TTITLE0=Cello Concerto No.1 in E-flat major, Op.107 (1959): I. Allegretto
TTITLE1=II. Moderato
TTITLE2=III. Cadenza
TTITLE3=IV. Finale. Allegro con moto
TTITLE4=Symphony No.5 in D minor, Op.47 (1937): I. Moderato"
TTITLE5=II. Allegretto
TTITLE6=III. Largo
TTITLE7=IV. Allegro non troppo
EXTD=YEAR: 2006
EXTT0=
EXTT1=
EXTT2=
EXTT3=
EXTT4=
EXTT5=
EXTT6=
EXTT7=
PLAYORDER=
